<?xml version="1.0" encoding="UTF-8"?>
<svg version="1.1" xmlns="http://www.w3.org/2000/svg" width="936" height="746">
<path d="M0 0 C308.88 0 617.76 0 936 0 C936 246.18 936 492.36 936 746 C627.12 746 318.24 746 0 746 C0 499.82 0 253.64 0 0 Z " fill="#020A12" transform="translate(0,0)"/>
<path d="M0 0 C1.48346409 0.55841548 2.96784354 1.11440526 4.453125 1.66796875 C6.20882812 2.32732422 6.20882812 2.32732422 8 3 C8 3.66 8 4.32 8 5 C8.886875 5.24621094 9.77375 5.49242187 10.6875 5.74609375 C19.23701519 8.98240787 25.78589878 17.08750924 30 25 C33.27309501 32.58762933 33.46034502 42.97979792 30.5625 50.75 C29.71873202 52.5050374 28.8708732 54.25825359 28 56 C27.34 56 26.68 56 26 56 C25.731875 56.763125 25.46375 57.52625 25.1875 58.3125 C24.02757741 60.93758796 22.97535534 62.02464466 21 64 C20.62667881 65.32269429 20.28853315 66.65625988 20 68 C20.48210937 67.566875 20.96421875 67.13375 21.4609375 66.6875 C22.09257813 66.130625 22.72421875 65.57375 23.375 65 C24.00148438 64.443125 24.62796875 63.88625 25.2734375 63.3125 C27 62 27 62 29 62 C28.70478288 66.48933618 28.38757628 70.58498103 26.4375 74.6875 C23.45154057 81.56818911 25.74720195 87.21478683 28 94 C25.03 93.34 22.06 92.68 19 92 C18.01 93.98 17.02 95.96 16 98 C15.34 98 14.68 98 14 98 C13.88825439 98.7122876 13.77650879 99.4245752 13.66137695 100.15844727 C12.94613504 103.23142646 11.84241902 105.65216834 10.41796875 108.46484375 C9.89952393 109.50640625 9.3810791 110.54796875 8.84692383 111.62109375 C8.29931396 112.71550781 7.7517041 113.80992187 7.1875 114.9375 C3.16999966 123.09854452 -0.34915904 130.84465151 -2.44921875 139.71875 C-3 142 -3 142 -4 143 C-5.59610982 143.09333705 -7.19633428 143.11745372 -8.79516602 143.11352539 C-9.81614883 143.11344986 -10.83713165 143.11337433 -11.88905334 143.11329651 C-12.9994548 143.10813522 -14.10985626 143.10297394 -15.25390625 143.09765625 C-16.38448959 143.0962413 -17.51507294 143.09482635 -18.67991638 143.09336853 C-22.30747065 143.08775019 -25.93496424 143.07519458 -29.5625 143.0625 C-32.01497307 143.05748736 -34.4674471 143.05292405 -36.91992188 143.04882812 C-42.94663545 143.0377748 -48.97331339 143.02101884 -55 143 C-55.186194 142.42047073 -55.372388 141.84094147 -55.56422424 141.24385071 C-60.46384924 125.90590476 -60.46384924 125.90590476 -66.9375 111.1875 C-67.3593457 110.32697021 -67.78119141 109.46644043 -68.21582031 108.57983398 C-69.46243579 106.04550324 -70.7271626 103.5212461 -72 101 C-72.56001709 99.8877002 -72.56001709 99.8877002 -73.13134766 98.75292969 C-73.83599563 97.3538692 -74.54090139 95.95493851 -75.24609375 94.55615234 C-86.65891414 71.89149007 -86.65891414 71.89149007 -87 62 C-83.27244802 63.24251733 -81.72599649 65.20751579 -79 68 C-77.68824014 69.02813611 -76.3630107 70.04084432 -75 71 C-76.9662113 67.49501465 -79.07226775 64.74316568 -81.875 61.875 C-88.49838254 54.48174089 -91.85346389 47.05927234 -91.34765625 37.046875 C-89.90168857 24.37434925 -85.82747407 16.80975026 -76 8.6875 C-68.54830601 3.05410859 -62.3452626 0.32336275 -53.3046875 -2.0703125 C-50.11380098 -2.88288653 -50.11380098 -2.88288653 -47.66943359 -4.03491211 C-33.43710829 -9.180365 -13.69885936 -5.40343897 0 0 Z " fill="#8EC5F0" transform="translate(498,197)"/>
<path d="M0 0 C1.48346409 0.55841548 2.96784354 1.11440526 4.453125 1.66796875 C6.20882812 2.32732422 6.20882812 2.32732422 8 3 C8 3.66 8 4.32 8 5 C8.886875 5.24621094 9.77375 5.49242187 10.6875 5.74609375 C19.23701519 8.98240787 25.78589878 17.08750924 30 25 C33.27309501 32.58762933 33.46034502 42.97979792 30.5625 50.75 C29.71873202 52.5050374 28.8708732 54.25825359 28 56 C27.34 56 26.68 56 26 56 C25.731875 56.763125 25.46375 57.52625 25.1875 58.3125 C24.02757741 60.93758796 22.97535534 62.02464466 21 64 C20.62667881 65.32269429 20.28853315 66.65625988 20 68 C20.48210937 67.566875 20.96421875 67.13375 21.4609375 66.6875 C22.09257813 66.130625 22.72421875 65.57375 23.375 65 C24.00148438 64.443125 24.62796875 63.88625 25.2734375 63.3125 C27 62 27 62 29 62 C28.70478288 66.48933618 28.38757628 70.58498103 26.4375 74.6875 C23.45154057 81.56818911 25.74720195 87.21478683 28 94 C25.03 93.34 22.06 92.68 19 92 C18.01 93.98 18.01 93.98 17 96 C15.64560332 93.29120665 15.93498549 90.99066732 16 88 C15.154375 87.731875 14.30875 87.46375 13.4375 87.1875 C10 86 10 86 7.0625 84.3125 C0.90068803 81.55699308 -8.00444436 83.13875125 -14.38305664 84.51367188 C-29.66859362 87.35430903 -50.16108903 86.49695177 -64 79 C-64 78.01 -64 77.02 -64 76 C-62.77410156 76.23009766 -62.77410156 76.23009766 -61.5234375 76.46484375 C-47.32947209 78.62068994 -35.90354526 77.42003515 -24 69 C-20.11859904 65.64096817 -17.38312698 62.24087739 -16.76171875 56.984375 C-16.57805425 51.45510679 -17.29353551 47.29721204 -21 43 C-30.08248735 34.21102211 -37.97916682 31.44599036 -50.47851562 31.51171875 C-59.84281307 31.85762947 -67.87951626 34.51222726 -74.6875 41.125 C-78.53542955 45.36019441 -80.27901608 48.05727643 -80.25 53.875 C-80.25515625 54.90367187 -80.2603125 55.93234375 -80.265625 56.9921875 C-79.99679588 60.036282 -79.28164154 62.2434535 -78 65 C-85.30644705 59.4632448 -89.96791429 51.96398101 -91.546875 42.83984375 C-91.81435336 32.68904012 -89.79192873 22.90494764 -83.08984375 15.09765625 C-74.15875886 6.13318413 -65.43790829 1.14220329 -53.3046875 -2.0703125 C-50.11380098 -2.88288653 -50.11380098 -2.88288653 -47.66943359 -4.03491211 C-33.43710829 -9.180365 -13.69885936 -5.40343897 0 0 Z " fill="#1476C0" transform="translate(498,197)"/>
<path d="M0 0 C5.63116897 4.20907405 10.46868133 8.13992428 11.68359375 15.390625 C12.05503219 21.84709901 10.14715165 25.98025684 5.94921875 30.75390625 C-2.73148864 39.08911285 -12.73318391 41.81454656 -24.4152832 41.59326172 C-28.57497435 41.43183674 -32.58790872 40.98460368 -36.68359375 40.19921875 C-36.68359375 40.85921875 -36.68359375 41.51921875 -36.68359375 42.19921875 C-37.87984375 42.48796875 -39.07609375 42.77671875 -40.30859375 43.07421875 C-43.83086211 43.95165215 -47.25561196 44.99942512 -50.68359375 46.19921875 C-50.02359375 42.56921875 -49.36359375 38.93921875 -48.68359375 35.19921875 C-49.34359375 35.19921875 -50.00359375 35.19921875 -50.68359375 35.19921875 C-50.35359375 34.53921875 -50.02359375 33.87921875 -49.68359375 33.19921875 C-49.02359375 33.52921875 -48.36359375 33.85921875 -47.68359375 34.19921875 C-48.11671875 33.544375 -48.54984375 32.88953125 -48.99609375 32.21484375 C-52.64159309 26.24027539 -54.82785842 21.2136939 -54.46875 14.1328125 C-52.64047563 7.30179732 -46.97330916 3.05961252 -41.68359375 -1.23828125 C-28.40474808 -8.1543467 -12.62419759 -8.47125923 0 0 Z " fill="#6EB6EE" transform="translate(470.68359375,233.80078125)"/>
<path d="M0 0 C0.98782471 -0.01268417 1.97564941 -0.02536835 2.9934082 -0.03843689 C4.58415161 -0.03403343 4.58415161 -0.03403343 6.20703125 -0.02954102 C7.84901489 -0.03740379 7.84901489 -0.03740379 9.52416992 -0.04542542 C11.83739372 -0.05184577 14.15065016 -0.05050848 16.46386719 -0.04199219 C20.00644915 -0.0334787 23.54742095 -0.06225112 27.08984375 -0.09399414 C29.3372391 -0.09560612 31.58463731 -0.09502869 33.83203125 -0.09204102 C34.89252686 -0.10327499 35.95302246 -0.11450897 37.0456543 -0.12608337 C44.34931105 -0.05672365 44.34931105 -0.05672365 47.6953125 2.24365234 C49.47962692 5.1546771 49.44789018 7.04857444 49.01953125 10.40405273 C48.35953125 11.39405273 47.69953125 12.38405273 47.01953125 13.40405273 C46.35953125 13.40405273 45.69953125 13.40405273 45.01953125 13.40405273 C45.67953125 14.39405273 46.33953125 15.38405273 47.01953125 16.40405273 C47.28515625 18.34155273 47.28515625 18.34155273 47.26953125 20.40405273 C47.27726562 21.42499023 47.27726562 21.42499023 47.28515625 22.46655273 C47.01953125 24.40405273 47.01953125 24.40405273 45.01953125 27.40405273 C45.67953125 28.06405273 46.33953125 28.72405273 47.01953125 29.40405273 C47.58027891 36.4694733 47.58027891 36.4694733 45.89453125 39.27905273 C44.01953125 40.40405273 44.01953125 40.40405273 41.20703125 41.27905273 C37.8385729 42.26001107 37.8385729 42.26001107 35.01953125 44.90405273 C28.7220612 50.15194444 21.91495659 50.06805697 14.01953125 49.40405273 C8.28624412 48.19902687 5.09713071 45.48165219 1.01953125 41.40405273 C-0.97016825 41.01391558 -2.97066744 40.67202624 -4.98046875 40.40405273 C-7.82157192 36.14239798 -7.38377933 32.4654179 -6.41796875 27.52905273 C-6.27359375 26.82780273 -6.12921875 26.12655273 -5.98046875 25.40405273 C-6.31046875 25.07405273 -6.64046875 24.74405273 -6.98046875 24.40405273 C-7.34137101 16.94540612 -7.34137101 16.94540612 -4.98046875 13.40405273 C-6.30046875 13.07405273 -7.62046875 12.74405273 -8.98046875 12.40405273 C-9.08883328 10.96822272 -9.16623042 9.53003253 -9.23046875 8.09155273 C-9.276875 7.29104492 -9.32328125 6.49053711 -9.37109375 5.66577148 C-8.98046875 3.40405273 -8.98046875 3.40405273 -7.26733398 1.78794861 C-4.60042892 0.17407173 -3.096057 0.01928744 0 0 Z " fill="#CFE5F5" transform="translate(448.98046875,342.595947265625)"/>
<path d="M0 0 C7.05185396 0.1083789 12.16024697 0.75718349 17.8125 5.25 C21.13283845 9.63284676 20.53579163 14.80593416 20.54296875 20.09375 C20.54629715 20.94424927 20.54962555 21.79474854 20.55305481 22.67102051 C20.55810965 24.46638448 20.56046358 26.26175782 20.56030273 28.05712891 C20.56249208 30.80256586 20.58067073 33.54760269 20.59960938 36.29296875 C20.60254302 38.03906113 20.60452801 39.78515541 20.60546875 41.53125 C20.61265427 42.35113403 20.61983978 43.17101807 20.62724304 44.01574707 C20.60698649 49.06960801 20.13252612 52.09139452 17.02734375 56.015625 C11.00745418 61.44586707 4.67916307 60.91960991 -2.9921875 60.62109375 C-6.625 60.3125 -6.625 60.3125 -8.625 59.3125 C-8.67129419 51.9151924 -8.70685426 44.51791593 -8.72862434 37.12049294 C-8.7390717 33.68574541 -8.75324805 30.25109683 -8.77587891 26.81640625 C-8.80172063 22.86980362 -8.81146493 18.92324137 -8.8203125 14.9765625 C-8.83063507 13.74007965 -8.84095764 12.5035968 -8.85159302 11.22964478 C-8.85174408 10.08861298 -8.85189514 8.94758118 -8.85205078 7.77197266 C-8.856492 6.763815 -8.86093323 5.75565735 -8.86550903 4.71694946 C-8.32507495 -0.68595135 -4.50193374 0.01446017 0 0 Z " fill="#E9EAEB" transform="translate(394.625,434.6875)"/>
<path d="M0 0 C3.36904501 2.40646072 4.8673733 4.08934249 6.625 7.875 C7.0437014 11.58050739 7.14460764 15.177327 6.625 18.875 C4.625 20.875 4.625 20.875 1.5625 21.0625 C-1.375 20.875 -1.375 20.875 -2.375 19.875 C-2.77069108 17.86188551 -3.11752191 15.83902792 -3.4375 13.8125 C-3.61410156 12.70777344 -3.79070313 11.60304688 -3.97265625 10.46484375 C-4.17181641 9.18287109 -4.17181641 9.18287109 -4.375 7.875 C-8.71684202 8.05964366 -8.71684202 8.05964366 -12.375 9.875 C-12.82852081 13.11443438 -13.04915568 15.6892321 -11.38671875 18.61328125 C-8.39984472 22.27325365 -4.95638765 24.9872138 -1.1875 27.8125 C3.34298807 31.35513729 5.73110691 34.14546836 6.625 39.875 C7.10785475 44.75265133 7.30360868 49.58922611 4.625 53.875 C2.5 54.6875 2.5 54.6875 0.625 54.875 C0.625 55.535 0.625 56.195 0.625 56.875 C-4.77719027 59.29176933 -9.71057023 59.34075395 -15.375 57.875 C-19.20952117 54.99910913 -20.89406379 52.36347626 -22.375 47.875 C-22.60546875 45.015625 -22.60546875 45.015625 -22.5625 42.125 C-22.55283203 40.67867188 -22.55283203 40.67867188 -22.54296875 39.203125 C-22.375 36.875 -22.375 36.875 -21.375 35.875 C-18.4375 35.6875 -18.4375 35.6875 -15.375 35.875 C-12.78573669 38.46426331 -13.00101957 39.90205279 -12.75 43.5 C-12.67523437 44.50289063 -12.60046875 45.50578125 -12.5234375 46.5390625 C-12.44996094 47.69535156 -12.44996094 47.69535156 -12.375 48.875 C-8.03315798 48.69035634 -8.03315798 48.69035634 -4.375 46.875 C-3.87864586 43.60490216 -4.20111336 40.96417536 -5.375 37.875 C-8.72463792 34.46301687 -12.55080814 31.73252114 -16.375 28.875 C-20.12365005 25.85052098 -22.10782443 23.65918941 -22.8359375 18.796875 C-23.02378004 12.46802628 -22.55564691 7.3799658 -19.375 1.875 C-14.62548612 -2.87451388 -5.9391296 -1.97970987 0 0 Z " fill="#EEEEEF" transform="translate(573.375,437.125)"/>
<path d="M0 0 C3.5 0.1875 3.5 0.1875 7 1 C9.44332098 4.66498148 9.84548146 8.11703321 10.5 12.375 C11.25316403 17.22504532 12.16240074 21.43291229 14 26 C14.21080776 27.91061209 14.35367398 29.829622 14.4375 31.75 C14.81155752 37.27925032 16.08789072 41.84050959 18 47 C19.05816798 51.04027773 19.16053746 54.82602603 19 59 C18 60 18 60 15.125 60.3125 C12 60 12 60 10.34765625 58.37109375 C8.6628613 55.40683134 8.49681337 53.14136606 8.3125 49.75 C8.24675781 48.67234375 8.18101562 47.5946875 8.11328125 46.484375 C8.07589844 45.66453125 8.03851562 44.8446875 8 44 C4.7 44 1.4 44 -2 44 C-2.12117188 44.98742187 -2.24234375 45.97484375 -2.3671875 46.9921875 C-2.53476562 48.27351563 -2.70234375 49.55484375 -2.875 50.875 C-3.03742188 52.15117187 -3.19984375 53.42734375 -3.3671875 54.7421875 C-4 58 -4 58 -6 60 C-9.0625 60.1875 -9.0625 60.1875 -12 60 C-13 59 -13 59 -13.1328125 57.1875 C-13.13023437 56.465625 -13.12765625 55.74375 -13.125 55 C-13.12757813 54.278125 -13.13015625 53.55625 -13.1328125 52.8125 C-13 51 -13 51 -12 50 C-11.55112921 46.94088896 -11.18256669 43.88265962 -10.83789062 40.81054688 C-10.33012353 36.62869265 -9.36705506 32.97000859 -8 29 C-7.26299739 26.01483578 -6.63054144 23.00923438 -6 20 C-5.33739708 16.85328319 -4.67038889 13.70756665 -4 10.5625 C-3.835 9.76134766 -3.67 8.96019531 -3.5 8.13476562 C-2.22556391 2.22556391 -2.22556391 2.22556391 0 0 Z " fill="#EFF0F0" transform="translate(506,435)"/>
<path d="M0 0 C1.53527344 -0.01836914 1.53527344 -0.01836914 3.1015625 -0.03710938 C4.07867187 -0.03904297 5.05578125 -0.04097656 6.0625 -0.04296875 C7.41021484 -0.04913208 7.41021484 -0.04913208 8.78515625 -0.05541992 C11 0.1875 11 0.1875 13 2.1875 C13.25 5.1875 13.25 5.1875 13 8.1875 C11 10.1875 11 10.1875 7.7421875 10.3828125 C4.16145833 10.31770833 0.58072917 10.25260417 -3 10.1875 C-3 15.1375 -3 20.0875 -3 25.1875 C-1.246875 25.14625 0.50625 25.105 2.3125 25.0625 C7.625 24.9375 7.625 24.9375 11 27.1875 C11.3125 30.1875 11.3125 30.1875 11 33.1875 C9 35.1875 9 35.1875 6.1796875 35.3828125 C3.11979167 35.31770833 0.05989583 35.25260417 -3 35.1875 C-3 40.1375 -3 45.0875 -3 50.1875 C0.403125 50.125625 0.403125 50.125625 3.875 50.0625 C7.7421875 49.9921875 7.7421875 49.9921875 11 50.1875 C13 52.1875 13 52.1875 13.1875 55.75 C13 59.1875 13 59.1875 12 60.1875 C8.19411856 60.43958722 4.37574544 60.37272344 0.5625 60.375 C-1.05108398 60.39336914 -1.05108398 60.39336914 -2.69726562 60.41210938 C-3.72400391 60.41404297 -4.75074219 60.41597656 -5.80859375 60.41796875 C-7.22869751 60.42413208 -7.22869751 60.42413208 -8.67749023 60.43041992 C-11 60.1875 -11 60.1875 -13 58.1875 C-13.24050903 55.78305054 -13.24050903 55.78305054 -13.22705078 52.72802734 C-13.22689972 51.58699554 -13.22674866 50.44596375 -13.22659302 49.27035522 C-13.21627045 48.03387238 -13.20594788 46.79738953 -13.1953125 45.5234375 C-13.1924826 44.26109283 -13.18965271 42.99874817 -13.18673706 41.69815063 C-13.17742131 38.34103056 -13.15944835 34.98418088 -13.1373291 31.62713623 C-13.1168755 28.20196878 -13.1077364 24.77677341 -13.09765625 21.3515625 C-13.07556458 14.63013329 -13.04206377 7.90883227 -13 1.1875 C-9.11308052 -0.75595974 -4.27485419 0.00269197 0 0 Z " fill="#ECEDED" transform="translate(456,434.8125)"/>
<path d="M0 0 C2.6080523 2.6080523 2.25291786 3.7038194 2.25878906 7.3359375 C2.26509338 8.45049316 2.27139771 9.56504883 2.27789307 10.71337891 C2.2738446 11.92171387 2.26979614 13.13004883 2.265625 14.375 C2.26753845 15.61040527 2.2694519 16.84581055 2.27142334 18.11865234 C2.2731361 21.40591407 2.26506699 24.69298787 2.25390625 27.98022461 C2.25000397 29.9979453 2.25389171 32.01549201 2.26074219 34.03320312 C2.27306004 37.89721828 2.27160978 41.76097428 2.265625 45.625 C2.26967346 46.83333496 2.27372192 48.04166992 2.27789307 49.28662109 C2.27158875 50.40117676 2.26528442 51.51573242 2.25878906 52.6640625 C2.25640228 54.14060303 2.25640228 54.14060303 2.25396729 55.64697266 C2 58 2 58 0 60 C-3 60.25 -3 60.25 -6 60 C-8 58 -8 58 -8.24050903 55.59555054 C-8.23606781 54.58739288 -8.23162659 53.57923523 -8.22705078 52.54052734 C-8.22689972 51.39949554 -8.22674866 50.25846375 -8.22659302 49.08285522 C-8.21627045 47.84637238 -8.20594788 46.60988953 -8.1953125 45.3359375 C-8.1924826 44.07359283 -8.18965271 42.81124817 -8.18673706 41.51065063 C-8.17742131 38.15353056 -8.15944835 34.79668088 -8.1373291 31.43963623 C-8.1168755 28.01446878 -8.1077364 24.58927341 -8.09765625 21.1640625 C-8.07556458 14.44263329 -8.04206377 7.72133227 -8 1 C-5.23749964 -0.38125018 -3.05268901 -0.19079306 0 0 Z " fill="#E6E7E8" transform="translate(358,435)"/>
<path d="M0 0 C6 0 6 0 9 2 C9.29167512 4.81385206 9.39597908 7.40426945 9.36328125 10.21875 C9.36377975 11.03243042 9.36427826 11.84611084 9.36479187 12.68444824 C9.36244974 14.40603068 9.35271296 16.12761643 9.33618164 17.84912109 C9.31259319 20.48956813 9.31561877 23.1290057 9.32226562 25.76953125 C9.31668889 27.44011021 9.30957903 29.1106849 9.30078125 30.78125 C9.30214836 31.97034973 9.30214836 31.97034973 9.30354309 33.18347168 C9.23102347 38.76897653 9.23102347 38.76897653 7 41 C4.69 41 2.38 41 0 41 C0 27.47 0 13.94 0 0 Z " fill="#141C22" transform="translate(396,445)"/>
<path d="M0 0 C1.41805831 0.28482368 2.83440379 0.57818144 4.25 0.875 C5.03890625 1.03742188 5.8278125 1.19984375 6.640625 1.3671875 C9 2 9 2 10.796875 3.0078125 C17.85139604 6.18484857 26.88318582 5.18337421 34.4375 5.1875 C36.2019043 5.20586914 36.2019043 5.20586914 38.00195312 5.22460938 C43.94520044 5.23457569 49.40902855 5.00577169 55.16015625 3.44311523 C57.78601825 2.81069226 60.31663259 2.86239141 63 3 C63 3.66 63 4.32 63 5 C53.94336265 8.85972485 44.55262132 9.36321009 34.8125 9.3125 C33.18090942 9.30730347 33.18090942 9.30730347 31.51635742 9.30200195 C20.49841504 9.15435647 9.85000185 8.33604046 0 3 C0 2.01 0 1.02 0 0 Z " fill="#0C3B5E" transform="translate(434,273)"/>
<path d="M0 0 C0.33 0.66 0.66 1.32 1 2 C17.83 2 34.66 2 52 2 C51.67 2.99 51.34 3.98 51 5 C34.5 5.33 18 5.66 1 6 C0.67 4.02 0.34 2.04 0 0 Z " fill="#101D28" transform="translate(442,338)"/>
<path d="M0 0 C3.7634889 1.2544963 5.39056445 3.04721767 8 6 C8.8125 8.3125 8.8125 8.3125 9 10 C9.66 10 10.32 10 11 10 C10.85892253 11.45880109 10.71197585 12.91703551 10.5625 14.375 C10.48128906 15.18710937 10.40007812 15.99921875 10.31640625 16.8359375 C10 19 10 19 9 21 C9.66 21.33 10.32 21.66 11 22 C10.01 22.99 9.02 23.98 8 25 C0.14806378 8.29157175 0.14806378 8.29157175 0 0 Z " fill="#86BCE5" transform="translate(411,259)"/>
<path d="M0 0 C5.94649079 0.37165567 10.37830412 2.14658603 15 6 C15 6.66 15 7.32 15 8 C15.99 8.33 16.98 8.66 18 9 C18 10.32 18 11.64 18 13 C16.3934324 12.74379316 14.7897517 12.46944129 13.1875 12.1875 C12.29417969 12.03667969 11.40085937 11.88585937 10.48046875 11.73046875 C7.75708896 10.92846557 6.82874226 10.10518004 5 8 C4.113125 7.360625 3.22625 6.72125 2.3125 6.0625 C1.549375 5.381875 0.78625 4.70125 0 4 C0 2.68 0 1.36 0 0 Z " fill="#719FC2" transform="translate(387,207)"/>
<path d="M0 0 C-0.0625 2.25 -0.0625 2.25 -1 5 C-3.65742095 7.0898813 -6.53550551 9 -10 9 C-10.33 9.99 -10.66 10.98 -11 12 C-13.64 12.33 -16.28 12.66 -19 13 C-18.92578125 10.76953125 -18.92578125 10.76953125 -18 8 C-15.71317985 6.30485388 -13.67323445 5.00406488 -11.1875 3.6875 C-10.55779297 3.32849609 -9.92808594 2.96949219 -9.27929688 2.59960938 C-5.85476659 0.71306331 -3.98880785 0 0 0 Z " fill="#7BADD2" transform="translate(549,207)"/>
<path d="M0 0 C0 1.65 0 3.3 0 5 C-2.74656201 6.17538461 -5.49674122 7.34049752 -8.25 8.5 C-9.02730469 8.83386719 -9.80460937 9.16773438 -10.60546875 9.51171875 C-11.35957031 9.82753906 -12.11367188 10.14335937 -12.890625 10.46875 C-13.58188477 10.76201172 -14.27314453 11.05527344 -14.98535156 11.35742188 C-17 12 -17 12 -21 12 C-21 10.68 -21 9.36 -21 8 C-18.25430077 6.65712527 -15.50405734 5.32553004 -12.75 4 C-11.97269531 3.6184375 -11.19539063 3.236875 -10.39453125 2.84375 C-9.26337891 2.30234375 -9.26337891 2.30234375 -8.109375 1.75 C-7.41811523 1.41484375 -6.72685547 1.0796875 -6.01464844 0.734375 C-4 0 -4 0 0 0 Z " fill="#78A9CE" transform="translate(404,274)"/>
<path d="M0 0 C1.65 0 3.3 0 5 0 C5 6.27 5 12.54 5 19 C3.68 19.33 2.36 19.66 1 20 C0 19 0 19 -0.11352539 17.14233398 C-0.10828857 16.35157471 -0.10305176 15.56081543 -0.09765625 14.74609375 C-0.09443359 13.89208984 -0.09121094 13.03808594 -0.08789062 12.15820312 C-0.07951172 11.26037109 -0.07113281 10.36253906 -0.0625 9.4375 C-0.05798828 8.53580078 -0.05347656 7.63410156 -0.04882812 6.70507812 C-0.03700225 4.46998686 -0.0205222 2.23502563 0 0 Z " fill="#79A9CF" transform="translate(465,167)"/>
<path d="M0 0 C7.59952888 0.37374732 13.2402257 2.57589003 20 6 C20 7.32 20 8.64 20 10 C14.78254934 9.47493172 10.77348889 8.2201441 6.0625 5.9375 C4.91910156 5.38964844 3.77570312 4.84179688 2.59765625 4.27734375 C1.74042969 3.85582031 0.88320313 3.43429687 0 3 C0 2.01 0 1.02 0 0 Z " fill="#80B3DA" transform="translate(533,276)"/>
<path d="M0 0 C0 0.66 0 1.32 0 2 C-9.37688054 5.98891515 -18.99179256 6.32138127 -29.0625 6.25 C-30.18849609 6.25773437 -31.31449219 6.26546875 -32.47460938 6.2734375 C-34.08239258 6.26957031 -34.08239258 6.26957031 -35.72265625 6.265625 C-36.68953369 6.26336914 -37.65641113 6.26111328 -38.65258789 6.25878906 C-41 6 -41 6 -43 4 C-42.16339844 3.98541748 -41.32679688 3.97083496 -40.46484375 3.95581055 C-37.32596557 3.89432781 -34.18770584 3.82009835 -31.04931641 3.73754883 C-29.03699689 3.68840355 -27.02434268 3.65363712 -25.01171875 3.61914062 C-16.47207518 3.38312033 -8.1395591 -0.61046693 0 0 Z " fill="#0B2234" transform="translate(497,276)"/>
<path d="M0 0 C1.48831242 0.00667405 2.97660807 0.01863442 4.46484375 0.03515625 C5.22345703 0.03966797 5.98207031 0.04417969 6.76367188 0.04882812 C8.64326246 0.06064945 10.52281274 0.07858547 12.40234375 0.09765625 C12.07234375 0.75765625 11.74234375 1.41765625 11.40234375 2.09765625 C6.78234375 2.09765625 2.16234375 2.09765625 -2.59765625 2.09765625 C-2.59765625 7.04765625 -2.59765625 11.99765625 -2.59765625 17.09765625 C1.03234375 17.09765625 4.66234375 17.09765625 8.40234375 17.09765625 C8.40234375 17.42765625 8.40234375 17.75765625 8.40234375 18.09765625 C4.11234375 18.09765625 -0.17765625 18.09765625 -4.59765625 18.09765625 C-4.62449937 15.28509344 -4.64441813 12.47278384 -4.66015625 9.66015625 C-4.66853516 8.85771484 -4.67691406 8.05527344 -4.68554688 7.22851562 C-4.69417055 5.18470404 -4.64993775 3.14081723 -4.59765625 1.09765625 C-3.59765625 0.09765625 -3.59765625 0.09765625 0 0 Z " fill="#AFB2B4" transform="translate(455.59765625,442.90234375)"/>
<path d="M0 0 C-0.3916035 5.95507399 -1.37124595 10.62819824 -4 16 C-4.66 16 -5.32 16 -6 16 C-7.60838907 11.93172177 -8.60462487 9.17202467 -7 5 C-2.66666667 0 -2.66666667 0 0 0 Z " fill="#86BDE7" transform="translate(527,259)"/>
<path d="M0 0 C1.16471518 1.16471518 2.32856121 2.33031102 3.48828125 3.5 C4.53287007 4.53649123 5.59402112 5.55646006 6.66796875 6.5625 C8.16656087 7.9863405 9.58837808 9.48989283 11 11 C11 11.99 11 12.98 11 14 C6.21983232 11.87548103 2.67464839 8.67464839 -1 5 C-0.67 7.97 -0.34 10.94 0 14 C-2.02350324 10.96474514 -2.32124018 9.80573798 -2.625 6.3125 C-2.69976562 5.50425781 -2.77453125 4.69601562 -2.8515625 3.86328125 C-2.90054687 3.24839844 -2.94953125 2.63351562 -3 2 C-2.01 2 -1.02 2 0 2 C0 1.34 0 0.68 0 0 Z " fill="#173145" transform="translate(412,254)"/>
<path d="M0 0 C-2.53363611 1.26681805 -3.25032729 0.80903782 -5.93359375 0.0703125 C-11.34821346 -1.2206908 -16.52140604 -1.2252564 -22.0625 -1.125 C-23.02349609 -1.11597656 -23.98449219 -1.10695312 -24.97460938 -1.09765625 C-27.31667805 -1.07435208 -29.65819792 -1.04164058 -32 -1 C-31 -3 -31 -3 -29.4453125 -3.60546875 C-19.35819029 -5.23294374 -9.06940953 -4.99151778 0 0 Z " fill="#4B9EDD" transform="translate(468,232)"/>
<path d="M0 0 C-0.66 1.32 -1.32 2.64 -2 4 C-1.34 4.33 -0.68 4.66 0 5 C-3.37097383 6.49821059 -5.20442119 7 -9 7 C-8.8125 4.6875 -8.8125 4.6875 -8 2 C-3.84375 -1.28125 -3.84375 -1.28125 0 0 Z " fill="#6F9CBE" transform="translate(539,213)"/>
<path d="M0 0 C0.33 0.66 0.66 1.32 1 2 C2.32 2 3.64 2 5 2 C4 5 4 5 2.125 6 C1.42375 6.33 0.7225 6.66 0 7 C-0.53625 7.53625 -1.0725 8.0725 -1.625 8.625 C-2.07875 9.07875 -2.5325 9.5325 -3 10 C-3.66 10 -4.32 10 -5 10 C-4.49701212 5.59885603 -2.91227269 3.28804981 0 0 Z " fill="#132B3E" transform="translate(523,255)"/>
<path d="M0 0 C0.66 0 1.32 0 2 0 C2.33 3.63 2.66 7.26 3 11 C1.68 11 0.36 11 -1 11 C-1.02688151 9.35425434 -1.04634123 7.70838587 -1.0625 6.0625 C-1.07410156 5.14597656 -1.08570313 4.22945313 -1.09765625 3.28515625 C-1 1 -1 1 0 0 Z " fill="#666B6F" transform="translate(508,459)"/>
<path d="M0 0 C0.66 0.33 1.32 0.66 2 1 C-6.27906977 10.58139535 -6.27906977 10.58139535 -9 13 C-9.66 13 -10.32 13 -11 13 C-9.43638038 9.16202456 -6.97489917 6.8332373 -4 4 C-3.236875 3.236875 -2.47375 2.47375 -1.6875 1.6875 C-1.130625 1.130625 -0.57375 0.57375 0 0 Z " fill="#10619F" transform="translate(424,204)"/>
<path d="M0 0 C4.00594152 0.6162987 6.72993881 2.70399959 10 5 C10.99 5.66 11.98 6.32 13 7 C8.02693484 6.50269348 4.36200187 5.44697666 0 3 C0 2.01 0 1.02 0 0 Z " fill="#2F4C61" transform="translate(434,273)"/>
<path d="M0 0 C0.66 0.33 1.32 0.66 2 1 C1.28972656 1.40992188 0.57945312 1.81984375 -0.15234375 2.2421875 C-1.07144531 2.78101563 -1.99054688 3.31984375 -2.9375 3.875 C-3.85402344 4.40867187 -4.77054687 4.94234375 -5.71484375 5.4921875 C-8.10700296 6.79712563 -8.10700296 6.79712563 -9 9 C-9.66 9 -10.32 9 -11 9 C-11 7.68 -11 6.36 -11 5 C-9.21289414 4.13633178 -7.4201535 3.28431406 -5.625 2.4375 C-4.62726563 1.96183594 -3.62953125 1.48617188 -2.6015625 0.99609375 C-1.74304688 0.66738281 -0.88453125 0.33867187 0 0 Z " fill="#6590B0" transform="translate(394,277)"/>
<path d="M0 0 C-0.11409593 1.45922693 -0.24165544 2.91740598 -0.375 4.375 C-0.44460938 5.18710937 -0.51421875 5.99921875 -0.5859375 6.8359375 C-1 9 -1 9 -3 11 C-3 8.69 -3 6.38 -3 4 C-3.99 4.99 -4.98 5.98 -6 7 C-6.66 6.67 -7.32 6.34 -8 6 C-7.0479279 4.99403703 -6.08812654 3.99538437 -5.125 3 C-4.59132813 2.443125 -4.05765625 1.88625 -3.5078125 1.3125 C-2 0 -2 0 0 0 Z " fill="#6995B6" transform="translate(527,259)"/>
<path d="M0 0 C0.66 0.33 1.32 0.66 2 1 C1.67 1.99 1.34 2.98 1 4 C-2.5625 5.1875 -2.5625 5.1875 -6 6 C-4.98545548 3.4636387 -4.3146444 2.20648539 -2 0.6875 C-1.34 0.460625 -0.68 0.23375 0 0 Z " fill="#8BC2EC" transform="translate(391,280)"/>
</svg>
